<svg xmlns="http://www.w3.org/2000/svg" aria-hidden="true" style="position:absolute;width:0;height:0;overflow:hidden"><defs>
   <symbol id="icon-phone" viewBox="0 0 32 32"><path d="M26 32H5a2 2 0 0 1-2-2V6a2 2 0 0 1 2-2v24a2 2 0 0 0 2 2h4a2 2 0 0 0 2-2V4h13a2 2 0 0 1 2 2v24a2 2 0 0 1-2 2zm-5-3h2v-2h-2v2zm0-3h2v-2h-2v2zm0-3h2v-2h-2v2zm0-3h2v-2h-2v2zm-3 9h2v-2h-2v2zm0-3h2v-2h-2v2zm0-3h2v-2h-2v2zm0-3h2v-2h-2v2zm8-13a1 1 0 0 0-1-1h-9a1 1 0 0 0-1 1v4a1 1 0 0 0 1 1h9a1 1 0 0 0 1-1V7zm0 11h-2v2h2v-2zm0 3h-2v2h2v-2zm0 3h-2v2h2v-2zm0 3h-2v2h2v-2zm-15 2H7a1 1 0 0 1-1-1V3a1 1 0 0 1 1-1h1.938V0H10v2h1a1 1 0 0 1 1 1v25a1 1 0 0 1-1 1z"/></symbol>
   <symbol id="icon-office" viewBox="0 0 32 32"><path d="M0 32h16V0H0v32zM10 4h4v4h-4V4zm0 8h4v4h-4v-4zm0 8h4v4h-4v-4zM2 4h4v4H2V4zm0 8h4v4H2v-4zm0 8h4v4H2v-4zm16-10h14v2H18zm0 22h4v-8h6v8h4V14H18z"/></symbol>
   <symbol id="icon-images" viewBox="0 0 36 32"><path d="M34 4h-2V2c0-1.1-.9-2-2-2H2C.9 0 0 .9 0 2v24c0 1.1.9 2 2 2h2v2c0 1.1.9 2 2 2h28c1.1 0 2-.9 2-2V6c0-1.1-.9-2-2-2zM4 6v20H2.004L2 25.996V2.003l.004-.004h27.993l.004.004v1.996h-24c-1.1 0-2 .9-2 2zm30 23.996-.004.004H6.003l-.004-.004V6.003l.004-.004h27.993l.004.004v23.993z"/><path d="M30 11a3 3 0 1 1-6 0 3 3 0 0 1 6 0zM32 28H8v-4l7-12 8 10h2l7-6z"/></symbol>
   <symbol id="icon-calendar" viewBox="0 0 32 32"><path d="M10 12h4v4h-4zm6 0h4v4h-4zm6 0h4v4h-4zM4 24h4v4H4zm6 0h4v4h-4zm6 0h4v4h-4zm-6-6h4v4h-4zm6 0h4v4h-4zm6 0h4v4h-4zM4 18h4v4H4zM26 0v2h-4V0H8v2H4V0H0v32h30V0h-4zm2 30H2V8h26v22z"/></symbol></defs></svg>