<svg xmlns="http://www.w3.org/2000/svg" aria-hidden="true" style="position:absolute;width:0;height:0;overflow:hidden"><defs>

   <symbol id="icon-phone" viewBox="0 0 32 32"><path d="M26 32H5a2 2 0 0 1-2-2V6a2 2 0 0 1 2-2v24a2 2 0 0 0 2 2h4a2 2 0 0 0 2-2V4h13a2 2 0 0 1 2 2v24a2 2 0 0 1-2 2zm-5-3h2v-2h-2v2zm0-3h2v-2h-2v2zm0-3h2v-2h-2v2zm0-3h2v-2h-2v2zm-3 9h2v-2h-2v2zm0-3h2v-2h-2v2zm0-3h2v-2h-2v2zm0-3h2v-2h-2v2zm8-13a1 1 0 0 0-1-1h-9a1 1 0 0 0-1 1v4a1 1 0 0 0 1 1h9a1 1 0 0 0 1-1V7zm0 11h-2v2h2v-2zm0 3h-2v2h2v-2zm0 3h-2v2h2v-2zm0 3h-2v2h2v-2zm-15 2H7a1 1 0 0 1-1-1V3a1 1 0 0 1 1-1h1.938V0H10v2h1a1 1 0 0 1 1 1v25a1 1 0 0 1-1 1z"/></symbol>

   <symbol id="icon-office" viewBox="0 0 32 32"><path d="M0 32h16V0H0v32zM10 4h4v4h-4V4zm0 8h4v4h-4v-4zm0 8h4v4h-4v-4zM2 4h4v4H2V4zm0 8h4v4H2v-4zm0 8h4v4H2v-4zm16-10h14v2H18zm0 22h4v-8h6v8h4V14H18z"/></symbol>

   <symbol id="icon-images" viewBox="0 0 36 32"><path d="M34 4h-2V2c0-1.1-.9-2-2-2H2C.9 0 0 .9 0 2v24c0 1.1.9 2 2 2h2v2c0 1.1.9 2 2 2h28c1.1 0 2-.9 2-2V6c0-1.1-.9-2-2-2zM4 6v20H2.004L2 25.996V2.003l.004-.004h27.993l.004.004v1.996h-24c-1.1 0-2 .9-2 2zm30 23.996-.004.004H6.003l-.004-.004V6.003l.004-.004h27.993l.004.004v23.993z"/><path d="M30 11a3 3 0 1 1-6 0 3 3 0 0 1 6 0zM32 28H8v-4l7-12 8 10h2l7-6z"/></symbol>

   <symbol id="icon-calendar" viewBox="0 0 32 32"><path d="M10 12h4v4h-4zm6 0h4v4h-4zm6 0h4v4h-4zM4 24h4v4H4zm6 0h4v4h-4zm6 0h4v4h-4zm-6-6h4v4h-4zm6 0h4v4h-4zm6 0h4v4h-4zM4 18h4v4H4zM26 0v2h-4V0H8v2H4V0H0v32h30V0h-4zm2 30H2V8h26v22z"/></symbol>
   
   <symbol id="icon-Facebook-Icon" viewBox="0 0 17 32"><path d="M14.91 6.409c-.827-.242-1.778-.403-2.646-.403-1.075 0-3.391.684-3.391 2.013V11.2h5.5v5.355h-5.5v14.776H3.332V16.555H.603V11.2h2.729V8.502c0-4.067 1.902-7.449 6.492-7.449 1.571 0 4.383.081 5.913.604l-.827 4.751z"/></symbol>
   
   <symbol id="icon-instagram-1" viewBox="0 0 35 32"><path fill="#fff" d="M29.954.102H5.595C2.813.102.548 2.193.548 4.762v22.492c0 2.57 2.264 4.66 5.047 4.66h24.359c2.783 0 5.047-2.09 5.047-4.66V4.762c0-2.569-2.264-4.66-5.047-4.66zm3.028 27.151c0 1.542-1.359 2.796-3.028 2.796H5.595c-1.669 0-3.028-1.254-3.028-2.796V4.761c0-1.541 1.359-2.796 3.028-2.796h24.359c1.669 0 3.028 1.254 3.028 2.796v22.492z" style="fill:var(--color1, #fff)"/><path fill="#fff" d="M28.877 3.892c-1.113 0-2.019.836-2.019 1.864s.906 1.864 2.019 1.864 2.019-.836 2.019-1.864-.906-1.864-2.019-1.864zM17.774 7.62c-5.009 0-9.084 3.763-9.084 8.388s4.075 8.388 9.084 8.388c5.009 0 9.084-3.763 9.084-8.388S22.783 7.62 17.774 7.62zm0 14.911c-3.896 0-7.065-2.926-7.065-6.524s3.169-6.524 7.065-6.524c3.896 0 7.066 2.926 7.066 6.524s-3.169 6.524-7.066 6.524z" style="fill:var(--color1, #fff)"/></symbol>
   
   <symbol id="icon-twitter" viewBox="0 0 42 32"><path d="M40.696 4.544A18.069 18.069 0 0 1 36 5.732c1.689-.931 2.979-2.395 3.585-4.159a17.105 17.105 0 0 1-5.168 1.821c-1.496-1.47-3.627-2.381-5.953-2.381-4.512 0-8.144 3.381-8.144 7.527 0 .596.055 1.17.189 1.716-6.775-.305-12.771-3.303-16.798-7.871-.703 1.126-1.116 2.416-1.116 3.804 0 2.606 1.453 4.916 3.62 6.254a8.566 8.566 0 0 1-3.682-.927v.083c0 3.657 2.825 6.694 6.529 7.394a8.743 8.743 0 0 1-2.137.248c-.522 0-1.048-.028-1.543-.128 1.056 2.98 4.052 5.171 7.615 5.242-2.773 2.003-6.293 3.209-10.105 3.209-.668 0-1.309-.028-1.95-.103 3.61 2.15 7.888 3.377 12.502 3.377 14.997 0 23.196-11.47 23.196-21.413 0-.333-.012-.654-.03-.973a15.644 15.644 0 0 0 4.085-3.907z"/></symbol>
   
   <symbol id="icon-linkedin2" viewBox="0 0 32 32"><path d="M12 12h5.535v2.837h.079c.77-1.381 2.655-2.837 5.464-2.837C28.92 12 30 15.637 30 20.367V30h-5.769v-8.54c0-2.037-.042-4.657-3.001-4.657-3.005 0-3.463 2.218-3.463 4.509V30H12V12zM2 12h6v18H2V12zM8 7a3 3 0 1 1-6 0 3 3 0 0 1 6 0z"/></symbol>

   </defs>
</svg>